<?xml version="1.0" encoding="utf-8"?>
<svg version="1.1" xmlns="http://www.w3.org/2000/svg" x="0px" y="0px" viewBox="0 0 503 152" enable-background="new 0 0 503 152" xml:space="preserve">
<g>
	<path fill="#1B4965" d="M10.79,70.97c-1.89,0-3.68-0.51-5.39-1.53c-1.7-1.02-3.07-2.39-4.09-4.09c-1.02-1.7-1.53-3.5-1.53-5.39
		V25.67c0-1.89,0.51-3.68,1.53-5.39c1.02-1.7,2.39-3.07,4.09-4.09c1.7-1.02,3.5-1.53,5.39-1.53h24.22c1.99,0,3.85,0.5,5.58,1.49
		c1.73,1,3.09,2.35,4.09,4.05c1,1.7,1.49,3.53,1.49,5.47v31.69H25.41c-1.57,0-3.07-0.42-4.48-1.26c-1.42-0.84-2.54-1.95-3.38-3.34
		c-0.84-1.39-1.26-2.87-1.26-4.44v-7.86c0-1.57,0.42-3.05,1.26-4.44c0.84-1.39,1.95-2.5,3.34-3.34c1.39-0.84,2.87-1.26,4.44-1.26
		h10.54v-4.25c0-0.52-0.16-0.93-0.47-1.22c-0.31-0.29-0.76-0.43-1.34-0.43H12.44c-0.31,0-0.64,0.18-0.98,0.55
		c-0.34,0.37-0.51,0.73-0.51,1.1v31.06c0,0.37,0.2,0.75,0.59,1.14c0.39,0.39,0.75,0.59,1.06,0.59h33.58v11.01H10.79z M36.27,46.91
		v-5.03h-8.57c-0.26,0-0.5,0.09-0.71,0.28c-0.21,0.18-0.31,0.38-0.31,0.59v3.15c0,0.26,0.12,0.5,0.35,0.71
		c0.24,0.21,0.48,0.31,0.75,0.31H36.27z"/>
  <path fill="#1B4965" d="M83.53,56.35l14.63-41.05h12.58v55.05H99.89V42.5h-0.63l-9.83,27.84h-12.5L67.09,42.5h-0.63v27.84H55.61
		V15.29h12.58l14.63,41.05H83.53z"/>
  <path fill="#1B4965" d="M131.74,70.34c-3.3,0-6.06-1.07-8.26-3.22c-2.2-2.15-3.3-4.88-3.3-8.18V48.8c0-3.3,1.1-6.04,3.3-8.22
		c2.2-2.17,4.95-3.26,8.26-3.26h11.09v-9.83c0-1.05-0.5-1.57-1.49-1.57h-8.49c-0.42,0-0.77,0.13-1.06,0.39
		c-0.29,0.26-0.43,0.66-0.43,1.18v2.99h-11.17V26.3c0-3.3,1.1-6.03,3.3-8.18c2.2-2.15,4.95-3.22,8.26-3.22h10.54
		c3.3,0,6.06,1.08,8.26,3.22c2.2,2.15,3.3,4.88,3.3,8.18v44.04H131.74z M142.83,59.33V48.32H132.6c-0.42,0-0.76,0.13-1.02,0.39
		c-0.26,0.26-0.39,0.63-0.39,1.1v8.1c0,0.42,0.13,0.76,0.39,1.02c0.26,0.26,0.6,0.39,1.02,0.39H142.83z"/>
  <path fill="#1B4965" d="M201.26,70.34h-12.58l-12.66-23.83h-0.71v23.83h-11.64V15.29h22.41c3.3,0,6.07,1.08,8.3,3.22
		c2.23,2.15,3.34,4.88,3.34,8.18v9.75c0,2.83-0.84,5.24-2.52,7.24c-1.68,1.99-3.83,3.28-6.45,3.85L201.26,70.34z M185.29,37.31
		c0.42,0,0.77-0.13,1.06-0.39c0.29-0.26,0.43-0.63,0.43-1.1V27.8c0-0.47-0.15-0.84-0.43-1.1c-0.29-0.26-0.64-0.39-1.06-0.39h-10.54
		v11.01H185.29z"/>
  <path fill="#1B4965" d="M238.22,15.29V26.3h-11.09v44.04h-11.64V26.3H204.4V15.29H238.22z"/>
  <path fill="#1B4965" d="M245.69,70.34V15.29h22.1c3.3,0,6.06,1.08,8.26,3.22c2.2,2.15,3.3,4.88,3.3,8.18v32.24
		c0,3.3-1.1,6.03-3.3,8.18c-2.2,2.15-4.95,3.22-8.26,3.22H245.69z M266.69,59.33c1,0,1.49-0.5,1.49-1.49V27.8
		c0-1-0.5-1.49-1.49-1.49h-9.83v33.03H266.69z"/>
  <path fill="#1B4965"
        d="M322.6,15.29V26.3h-22.81v11.01h21.47v11.01h-21.47v11.01h22.81v11.01h-33.82V15.29H322.6z"/>
  <path fill="#1B4965"
        d="M356.96,70.34h-15.73l-11.95-55.05h12.03l7.63,36.65h0.79l7.63-36.65h11.56L356.96,70.34z"/>
  <path fill="#1B4965" d="M379.77,85.76h-11.64l22.33-85.88h11.64L379.77,85.76z"/>
</g>
<g>
	<path fill="#62B6CB" d="M97.21,103.48l2.67,8.1l-8.57,2.75l6.21,8.49l-7,5.11l-6.29-8.57l-6.29,8.57l-7-5.03l6.21-8.57l-8.57-2.75
		l2.67-8.1l8.65,2.67v-9.59h8.65v9.59L97.21,103.48z"/>
  <path fill="#62B6CB" d="M144.95,151.61h-12.58l-12.66-23.83H119v23.83h-11.64V96.56h22.41c3.3,0,6.07,1.08,8.3,3.22
		c2.23,2.15,3.34,4.88,3.34,8.18v9.75c0,2.83-0.84,5.24-2.52,7.24c-1.68,1.99-3.83,3.28-6.45,3.85L144.95,151.61z M128.98,118.58
		c0.42,0,0.77-0.13,1.06-0.39c0.29-0.26,0.43-0.63,0.43-1.1v-8.02c0-0.47-0.15-0.84-0.43-1.1c-0.29-0.26-0.64-0.39-1.06-0.39h-10.54
		v11.01H128.98z"/>
  <path fill="#62B6CB"
          d="M184.66,96.56v11.01h-22.81v11.01h21.47v11.01h-21.47v11.01h22.81v11.01h-33.82V96.56H184.66z"/>
  <path fill="#62B6CB" d="M205.66,151.61c-3.3,0-6.06-1.07-8.26-3.22c-2.2-2.15-3.3-4.88-3.3-8.18v-10.14c0-3.3,1.1-6.04,3.3-8.22
		c2.2-2.18,4.95-3.26,8.26-3.26h11.09v-9.83c0-1.05-0.5-1.57-1.49-1.57h-8.49c-0.42,0-0.77,0.13-1.06,0.39
		c-0.29,0.26-0.43,0.66-0.43,1.18v2.99H194.1v-4.17c0-3.3,1.1-6.03,3.3-8.18c2.2-2.15,4.95-3.22,8.26-3.22h10.54
		c3.3,0,6.06,1.08,8.26,3.22c2.2,2.15,3.3,4.88,3.3,8.18v44.04H205.66z M216.75,140.6v-11.01h-10.22c-0.42,0-0.76,0.13-1.02,0.39
		c-0.26,0.26-0.39,0.63-0.39,1.1v8.1c0,0.42,0.13,0.76,0.39,1.02c0.26,0.26,0.6,0.39,1.02,0.39H216.75z"/>
  <path fill="#62B6CB" d="M248.44,152c-3.36,0-6.13-1.07-8.34-3.22c-2.2-2.15-3.3-4.88-3.3-8.18v-33.03c0-3.3,1.1-6.03,3.3-8.18
		c2.2-2.15,4.98-3.22,8.34-3.22h10.77c3.35,0,6.12,1.08,8.3,3.22c2.17,2.15,3.26,4.88,3.26,8.18v4.17h-11.25v-3.07
		c0-0.47-0.14-0.84-0.43-1.1c-0.29-0.26-0.67-0.39-1.14-0.39h-8.34c-1,0-1.49,0.5-1.49,1.49v30.83c0,1,0.5,1.49,1.49,1.49h8.34
		c0.47,0,0.85-0.13,1.14-0.39c0.29-0.26,0.43-0.63,0.43-1.1v-3.07h11.25v4.17c0,3.3-1.09,6.03-3.26,8.18
		c-2.18,2.15-4.94,3.22-8.3,3.22H248.44z"/>
  <path fill="#62B6CB" d="M310.49,96.56v11.01H299.4v44.04h-11.64v-44.04h-11.09V96.56H310.49z"/>
  <path fill="#62B6CB" d="M333.69,129.59h-26.35v-11.01h26.35V129.59z"/>
  <path fill="#62B6CB" d="M340.37,151.61V96.56h22.1c3.3,0,6.06,1.08,8.26,3.22c2.2,2.15,3.3,4.88,3.3,8.18v32.24
		c0,3.3-1.1,6.03-3.3,8.18c-2.2,2.15-4.95,3.22-8.26,3.22H340.37z M361.37,140.6c1,0,1.49-0.5,1.49-1.49v-30.04
		c0-1-0.5-1.49-1.49-1.49h-9.83v33.03H361.37z"/>
  <path fill="#62B6CB" d="M421.06,151.61h-12.58l-12.66-23.83h-0.71v23.83h-11.64V96.56h22.41c3.3,0,6.07,1.08,8.3,3.22
		c2.23,2.15,3.34,4.88,3.34,8.18v9.75c0,2.83-0.84,5.24-2.52,7.24c-1.68,1.99-3.83,3.28-6.45,3.85L421.06,151.61z M405.09,118.58
		c0.42,0,0.77-0.13,1.06-0.39c0.29-0.26,0.43-0.63,0.43-1.1v-8.02c0-0.47-0.15-0.84-0.43-1.1c-0.29-0.26-0.64-0.39-1.06-0.39h-10.54
		v11.01H405.09z"/>
  <path fill="#62B6CB" d="M437.73,151.61c-3.3,0-6.06-1.07-8.26-3.22c-2.2-2.15-3.3-4.88-3.3-8.18v-10.14c0-3.3,1.1-6.04,3.3-8.22
		c2.2-2.18,4.95-3.26,8.26-3.26h11.09v-9.83c0-1.05-0.5-1.57-1.49-1.57h-8.49c-0.42,0-0.77,0.13-1.06,0.39
		c-0.29,0.26-0.43,0.66-0.43,1.18v2.99h-11.17v-4.17c0-3.3,1.1-6.03,3.3-8.18c2.2-2.15,4.95-3.22,8.26-3.22h10.54
		c3.3,0,6.06,1.08,8.26,3.22c2.2,2.15,3.3,4.88,3.3,8.18v44.04H437.73z M448.82,140.6v-11.01h-10.22c-0.42,0-0.76,0.13-1.02,0.39
		c-0.26,0.26-0.39,0.63-0.39,1.1v8.1c0,0.42,0.13,0.76,0.39,1.02c0.26,0.26,0.6,0.39,1.02,0.39H448.82z"/>
  <path fill="#62B6CB" d="M502.85,111.74H491.6v-2.99c0-0.47-0.15-0.85-0.43-1.14c-0.29-0.29-0.67-0.43-1.14-0.43h-8.34
		c-0.47,0-0.84,0.14-1.1,0.43c-0.26,0.29-0.39,0.67-0.39,1.14v30.75c0,1,0.5,1.49,1.49,1.49h8.34c0.47,0,0.85-0.13,1.14-0.39
		c0.29-0.26,0.43-0.63,0.43-1.1v-9.91h11.25v22.02h-11.09v-2.6c-1.63,1.99-3.64,2.99-6.05,2.99h-5.19c-3.3,0-6.07-1.07-8.3-3.22
		c-2.23-2.15-3.34-4.88-3.34-8.18v-32.95c0-2.15,0.51-4.1,1.53-5.86c1.02-1.76,2.42-3.13,4.21-4.13c1.78-1,3.75-1.49,5.9-1.49h10.77
		c3.35,0,6.12,1.09,8.3,3.26c2.17,2.18,3.26,4.92,3.26,8.22V111.74z"/>
</g>
</svg>
